<?xml version="1.0" encoding="UTF-8"?><svg id="UR_DUBAI_VECTO" xmlns="http://www.w3.org/2000/svg" xmlns:xlink="http://www.w3.org/1999/xlink" viewBox="0 0 579.33 452.21"><defs><style>.cls-1{fill:url(#Dégradé_sans_nom_5);}.cls-1,.cls-2{stroke-width:0px;}.cls-3{font-family:Montserrat-Thin, Montserrat;font-size:100.98px;font-weight:200;letter-spacing:.3em;}</style><linearGradient id="Dégradé_sans_nom_5" x1="488.58" y1="167.34" x2="506.21" y2="167.34" gradientUnits="userSpaceOnUse"><stop offset="0" stop-color="#fff"/><stop offset="1" stop-color="#b8962e"/></linearGradient></defs><path class="cls-2" d="m577.86,301.07c-22.19,8.32-41.91,2.8-59.32-11.51-8.42-6.92-16.23-14.98-22.77-23.68-15.21-20.23-29.49-41.15-44.12-61.81-14.15-19.98-30.36-37.68-53.59-47.26-2.15-.89-4.35-1.66-6.57-2.38-2.8-.91-5.65-1.75-8.52-2.6-.16-.05-.33-.1-.49-.15-1.38-.41-2.76-.83-4.14-1.26-.13-.04-.26-.08-.39-.12-.18-.06-.37-.11-.55-.17.19-.06.37-.12.55-.19.13-.05.26-.1.39-.14.35-.12.68-.23,1.02-.26,1.04-.08,2.08-.14,3.12-.21.16-.01.33-.02.49-.03,1.79-.11,3.58-.22,5.36-.34,1-.07,2-.14,3-.22,19.52-1.49,38.63-4.65,56.45-13.56,32.15-16.08,43.68-47.47,37.21-79.09-4.97-24.31-21.92-38.58-44.11-47.08C420.85,1.33,399.69.19,378.57.08c-.56,0-1.12,0-1.69-.01-2.08,0-4.15,0-6.23-.01-.2,0-.39,0-.59,0-.72,0-1.44,0-2.17,0-.16,0-.33,0-.49,0-2.38,0-4.76,0-7.14-.01-53.62-.11-107.24.04-160.86.08-1.77,0-3.55,0-5.57,0v6.84c8.24.64,16.06.96,23.8,1.93,12.56,1.57,19.23,8.03,21.11,20.37.9,5.91,1.53,11.93,1.54,17.9.12,58.82.21,117.65.03,176.47-.06,18.71-3.69,36.46-17.16,50.82-12.3,13.12-27.03,20.17-45.17,17-17.81-3.12-27.12-15.75-32.47-31.85-4.79-14.43-5.27-29.44-5.26-44.47.04-69.99.07-139.98.11-209.97,0-1.59,0-3.19,0-4.71H0v6.21c8.41.74,16.55,1.08,24.58,2.24,11.44,1.65,18.07,8.01,19.94,19.31,1.17,7.03,1.73,14.24,1.75,21.37.14,48.83.02,97.65.13,146.48.02,7.98.31,16.01,1.24,23.93,3.66,31.17,18.75,55.09,46.16,70.8,29.53,16.92,61.25,19.55,93.89,12.85,16.28-3.34,30.64-11.2,41.74-24.05,3.62-4.19,6.9-8.67,11.02-13.89v35.3h123.77v-5.95c-6.65-.67-13.12-.99-19.48-2.04-10.97-1.82-16-6.94-17.56-18.04-.92-6.58-1.3-13.28-1.32-19.92-.11-32.66-.01-65.32.02-97.98,0-1.3.13-2.6.2-3.83,7-1.74,14.64-.71,21.32,2.7,5.65,2.88,10.61,7.45,13.92,13.53,1.49,2.75,2.87,5.56,4.18,8.41,4.01,8.75,7.3,17.88,10.85,26.84,5.96,15,10.6,30.6,17.54,45.11,17.55,36.69,45.24,61.89,85.9,70.66,32.97,7.11,64.88,3.67,95.52-10.88,4.61-2.19,4.98-4.55,2.56-8.56Zm-217.35-156.73c-.1.01-.2.03-.3.04-1.29.17-2.6.31-3.94.4-.1,0-.2.01-.3.02-.37.03-.75.05-1.13.07-2.39.12-4.79.16-7.19.16-5.59,0-11.19-.23-16.78-.23-3.69,0-5.16-1.36-5.12-5.35.19-20.81.09-41.63.09-62.45.02,0,.05,0,.07,0,0-20.82.11-41.63-.09-62.45-.04-4.14,1.4-5.68,5.36-5.76,7.48-.15,14.96-.85,22.44-.73,2.29.04,4.48.17,6.59.4,2.52.27,4.91.69,7.18,1.25.16.04.33.08.49.12.73.19,1.46.39,2.17.61.2.06.39.13.59.2,2.91.96,5.61,2.18,8.08,3.71,7.69,4.74,13.28,12.31,16.94,23.22,9.09,27.02,8.51,54.5-1.73,81.21-.97,2.54-2.11,4.86-3.39,6.99-2.14,3.56-4.69,6.57-7.59,9.08-.16.14-.33.28-.49.42-1.31,1.09-2.69,2.08-4.14,2.97-.13.08-.26.16-.39.24-.96.58-1.94,1.11-2.95,1.61-.16.08-.33.16-.49.24-1.24.59-2.52,1.12-3.84,1.59-.2.07-.39.13-.59.2-.71.24-1.43.47-2.17.68-.16.05-.33.09-.49.14-1,.28-2.02.52-3.05.74-.13.03-.26.05-.39.08-1.13.23-2.28.42-3.45.59Z"/><path class="cls-1" d="m497.1,176.22c4.81.1,8.96-3.82,9.11-8.61.15-4.79-3.81-9.02-8.59-9.15-4.74-.13-8.78,3.77-9.03,8.72-.24,4.89,3.56,8.93,8.51,9.04Z"/><text class="cls-3" transform="translate(46.22 426.06)"><tspan x="0" y="0">DUBAI</tspan></text></svg>